:SAMPLES-PER-SECOND 30
:FRAME-RANGE 1-1770
:FULLY-SPECIFIED
:DEGREES
1715
root  -9.01722 38.9279 -46.1067 -33.951 83.998 -30.2012
RightUpLeg  -13.8391 -6.69854 8.27879
RightLeg  16.1016 -16.8192 -2.95463
RightFoot  -1.58238 0.472685 -5.6535
RightToes  6.35937e-011 1.2921e-014 -6.02303e-014
Spine  1.47002 -4.4908 0.156954
Spine1  4.16216 -5.75234 4.9891
HEad  3.3472 -38.157 0.612034
LeftShoulder1  2.17163 -2.3387 -31.1402
LeftArm  33.91 -20.941 -49.8248
LeftForeArm  -2.86265 -4.65752 -19.1343
LeftHand  0.101875 -0.736758 -1.86685
RightShoulder  8.68066 11.2064 51.6595
RightArm  3.70241 5.29488 12.6242
RightForeArm  30.1803 -5.1737 16.879
RightHand  0.30303 3.75007 3.58736
LeftUpLeg  11.8837 16.0265 -0.402341
LeftLeg  21.4442 -3.77585 -1.30372
LeftFoot  -16.4665 -0.0408935 -3.11835
LeftToes  3.18074e-010 1.39432e-010 -7.71186e-011
1716
root  -8.21614 38.9523 -46.2949 -45.2935 84.3993 -42.5059
RightUpLeg  -13.963 -5.33443 8.06293
RightLeg  17.231 -19.0771 -3.22412
RightFoot  -2.95203 0.362479 -5.20751
RightToes  6.35937e-011 1.2921e-014 -6.02303e-014
Spine  1.67884 -4.37653 1.59839
Spine1  3.41802 -5.62099 6.14941
HEad  2.10019 -39.2928 1.73304
LeftShoulder1  2.16511 -2.40651 -30.5991
LeftArm  25.4274 -18.4555 -44.9772
LeftForeArm  -0.788032 -3.28744 -19.3954
LeftHand  0.0818306 1.86238 -3.08771
RightShoulder  7.42358 9.15857 51.3404
RightArm  1.2564 3.25816 10.5213
RightForeArm  30.0706 -5.49916 16.7087
RightHand  0.305443 2.33698 4.40146
LeftUpLeg  7.23497 18.2357 1.83132
LeftLeg  30.7743 -6.04231 -3.53213
LeftFoot  -12.2366 0.0186603 -6.97906
LeftToes  3.18074e-010 1.39432e-010 -7.71186e-011
1717
root  -7.48497 38.9054 -46.5042 -55.8618 84.3847 -53.7944
RightUpLeg  -14.1726 -5.30471 8.02638
RightLeg  18.7905 -19.7173 -3.48428
RightFoot  -4.5334 0.212578 -4.08571
RightToes  6.35937e-011 1.2921e-014 -6.02303e-014
Spine  2.54629 -4.42843 3.33445
Spine1  2.58199 -5.49647 6.63539
HEad  0.178032 -40.229 3.70955
LeftShoulder1  2.10135 -2.28611 -30.2545
LeftArm  10.8365 -14.2784 -38.5871
LeftForeArm  9.42467 0.493673 -19.0706
LeftHand  0.0234445 3.95329 -3.90568
RightShoulder  5.9429 6.80116 50.5282
RightArm  2.47873 0.771775 9.76574
RightForeArm  28.5342 -5.39795 16.8467
RightHand  0.363345 2.02934 5.51763
LeftUpLeg  1.67708 19.7403 4.10471
LeftLeg  41.0175 -7.19765 -6.29208
LeftFoot  -6.28705 0.712911 -15.2278
LeftToes  3.18074e-010 1.39432e-010 -7.71186e-011
1718
root  -6.84912 38.7228 -46.7128 -67.3763 84.0733 -65.8458
RightUpLeg  -14.9549 -5.37406 8.29514
RightLeg  21.5964 -20.2809 -4.39484
RightFoot  -6.46794 0.0933398 -3.21977
RightToes  6.35937e-011 1.2921e-014 -6.02303e-014
Spine  3.62932 -4.84448 4.72736
Spine1  2.31946 -5.82877 7.75358
HEad  -2.2795 -40.5279 5.6991
LeftShoulder1  2.00739 -2.03807 -30.1799
LeftArm  25.0512 -5.70631 -32.6969
LeftForeArm  -2.11061 -3.58727 -19.413
LeftHand  0.0563097 3.61794 -5.25854
RightShoulder  4.7159 4.84917 49.4902
RightArm  10.0986 -1.24039 9.82339
RightForeArm  23.3912 -3.83731 17.7775
RightHand  0.451531 2.70147 6.26563
LeftUpLeg  -4.23808 20.2013 6.10762
LeftLeg  50.4916 -7.03304 -8.63535
LeftFoot  -0.648825 1.92169 -20.3077
LeftToes  3.18074e-010 1.39432e-010 -7.71186e-011
1719
root  -6.19304 38.6678 -46.9361 -69.0527 83.9559 -67.9327
RightUpLeg  -14.9465 -5.35441 7.95525
RightLeg  23.0517 -20.2401 -4.7842
RightFoot  -7.84672 0.0231549 -2.49854
RightToes  6.35937e-011 1.2921e-014 -6.02303e-014
Spine  4.41398 -4.99607 5.45904
Spine1  2.10424 -5.8674 8.11572
HEad  -4.10878 -41.0136 7.54883
LeftShoulder1  1.79591 -1.50713 -29.786
LeftArm  36.6 2.59729 -26.7833
LeftForeArm  -11.7722 -6.74325 -19.1333
LeftHand  0.142561 2.33408 -6.04448
RightShoulder  3.81256 3.29935 49.1477
RightArm  19.7661 -2.50729 9.74949
RightForeArm  17.2633 -1.45836 18.6084
RightHand  0.519665 3.68425 6.38277
LeftUpLeg  -9.20377 21.1765 7.03893
LeftLeg  56.8754 -4.80478 -7.40042
LeftFoot  -0.0261723 1.84158 -18.4516
LeftToes  3.18074e-010 1.39432e-010 -7.71186e-011
1720
root  -5.48027 38.7711 -47.2002 -56.6608 84.0152 -55.8227
RightUpLeg  -14.1212 -5.23287 6.8778
RightLeg  23.0393 -19.0379 -4.56361
RightFoot  -8.66149 -0.0217206 -1.57784
RightToes  6.35937e-011 1.2921e-014 -6.02303e-014
Spine  4.83998 -4.57839 5.7757
Spine1  1.71232 -5.21974 7.31412
HEad  -4.30705 -41.4262 8.45143
LeftShoulder1  1.5568 -0.948894 -28.8864
LeftArm  39.7749 10.1831 -21.638
LeftForeArm  -16.3534 -7.14383 -19.2299
LeftHand  0.19083 1.21587 -5.57016
RightShoulder  3.28424 2.35131 49.2145
RightArm  26.8583 -3.59529 9.74418
RightForeArm  13.4076 0.311657 18.922
RightHand  0.485788 4.27681 5.54523
LeftUpLeg  -13.0262 22.8336 7.18421
LeftLeg  59.9464 -2.46751 -4.06944
LeftFoot  -0.524847 1.52511 -15.9903
LeftToes  3.18074e-010 1.39432e-010 -7.71186e-011
1721
root  -4.76621 38.9192 -47.5072 -40.2815 83.7121 -39.5642
RightUpLeg  -12.9278 -5.43335 5.35681
RightLeg  22.4363 -17.3398 -3.8659
RightFoot  -9.21925 -0.0434399 -1.02489
RightToes  6.35937e-011 1.2921e-014 -6.02303e-014
Spine  5.20272 -3.9228 5.91499
Spine1  1.12958 -4.32399 6.3048
HEad  -3.18825 -41.6467 7.56778
LeftShoulder1  1.34641 -0.50113 -27.5025
LeftArm  30.2232 16.8788 -17.8264
LeftForeArm  -10.2859 -6.26286 -18.817
LeftHand  0.180776 0.985314 -4.97003
RightShoulder  3.07831 2.00759 49.0163
RightArm  30.0716 -4.57906 10.1388
RightForeArm  11.6653 0.972822 19.0038
RightHand  0.435654 4.55213 4.78981
LeftUpLeg  -15.866 24.1539 7.02722
LeftLeg  60.1 -0.998864 -1.33278
LeftFoot  -0.749917 1.23539 -13.2336
LeftToes  3.18074e-010 1.39432e-010 -7.71186e-011
1722
root  -4.04761 39.1075 -47.8477 -25.073 82.8093 -24.3575
RightUpLeg  -11.3133 -5.6186 3.64787
RightLeg  21.0769 -15.4333 -3.00091
RightFoot  -9.42896 -0.0573029 -0.393269
RightToes  6.35937e-011 1.2921e-014 -6.02303e-014
Spine  5.55291 -3.11313 6.17909
Spine1  0.400017 -3.23536 4.88802
HEad  -1.79651 -41.8051 6.04623
LeftShoulder1  1.16997 -0.119048 -26.1286
LeftArm  22.8483 22.3183 -15.4905
LeftForeArm  -6.86772 -6.54709 -18.0329
LeftHand  0.132904 1.52129 -4.30835
RightShoulder  3.04958 1.97207 48.875
RightArm  29.2812 -4.91537 10.653
RightForeArm  12.0901 0.612733 18.9866
RightHand  0.449501 4.52122 4.9685
LeftUpLeg  -17.6227 25.0131 6.86678
LeftLeg  57.3596 -0.342151 -0.0679264
LeftFoot  -1.64459 1.03786 -12.0856
LeftToes  3.18074e-010 1.39432e-010 -7.71186e-011
1723
root  -3.35098 39.3319 -48.2074 -14.1624 81.6466 -13.5589
RightUpLeg  -9.66522 -5.9845 1.89441
RightLeg  19.2069 -13.2888 -2.10192
RightFoot  -9.25579 -0.068039 0.291795
RightToes  6.35937e-011 1.2921e-014 -6.02303e-014
Spine  5.80109 -2.37332 6.26302
Spine1  -0.324824 -2.31046 3.49878
HEad  -0.815243 -41.6533 4.25841
LeftShoulder1  1.00942 0.304181 -25.3476
LeftArm  17.7804 26.1126 -13.8146
LeftForeArm  -5.61971 -6.45146 -17.6171
LeftHand  0.105534 2.02532 -4.10862
RightShoulder  3.33254 2.4483 49.1219
RightArm  28.9656 -4.50519 10.9058
RightForeArm  11.2602 0.569601 19.0248
RightHand  0.49208 4.3898 5.54792
LeftUpLeg  -18.5582 25.2285 6.66659
LeftLeg  51.8064 -0.238446 0.119672
LeftFoot  -2.42532 0.909067 -11.4454
LeftToes  3.18074e-010 1.39432e-010 -7.71186e-011
1724
root  -2.67544 39.5949 -48.5697 -5.10742 80.0258 -4.76715
RightUpLeg  -8.00074 -6.41314 0.0472753
RightLeg  16.6488 -10.9303 -1.255
RightFoot  -8.61592 -0.0794577 0.883819
RightToes  6.35937e-011 1.2921e-014 -6.02303e-014
Spine  5.84217 -1.57591 5.97999
Spine1  -0.921108 -1.3864 1.97212
HEad  -0.319355 -41.2398 2.75682
LeftShoulder1  0.888779 0.678178 -25.245
LeftArm  11.8383 28.566 -12.6209
LeftForeArm  -3.63806 -5.00862 -17.6058
LeftHand  0.104304 2.31106 -4.51701
RightShoulder  3.88897 3.36886 49.6226
RightArm  27.11 -3.45732 11.0385
RightForeArm  12.5225 0.132252 18.9582
RightHand  0.528473 4.28113 6.05294
LeftUpLeg  -18.3722 25.343 6.289
LeftLeg  43.1677 0.111344 0.495432
LeftFoot  -2.53795 0.877215 -11.1724
LeftToes  3.18074e-010 1.39432e-010 -7.71186e-011
1725
root  -2.05231 39.8539 -48.9442 0.536621 78.7412 0.472961
RightUpLeg  -6.31273 -6.85337 -1.69818
RightLeg  13.5709 -8.96724 -0.451931
RightFoot  -7.62545 -0.100024 1.48756
RightToes  6.35937e-011 1.2921e-014 -6.02303e-014
Spine  5.7652 -1.06982 5.57213
Spine1  -1.36996 -0.796321 0.511106
HEad  -0.172572 -40.6278 1.71441
LeftShoulder1  0.826188 0.910518 -25.663
LeftArm  7.10191 29.9614 -12.1238
LeftForeArm  -2.43593 -3.38573 -17.6528
LeftHand  0.110974 2.48054 -5.10154
RightShoulder  4.58663 4.53778 49.9974
RightArm  28.131 -2.08706 11.427
RightForeArm  11.3681 0.510183 19.0194
RightHand  0.530189 4.27812 6.07555
LeftUpLeg  -17.3724 24.717 5.93924
LeftLeg  32.0732 1.81365 1.56599
LeftFoot  -1.26547 0.982916 -11.0389
LeftToes  3.18074e-010 1.39432e-010 -7.71186e-011
1726
root  -1.44589 40.0755 -49.3377 3.66785 77.616 3.31949
RightUpLeg  -4.45963 -7.13526 -3.14512
RightLeg  10.3802 -7.62351 -0.0021173
RightFoot  -6.4922 -0.137905 2.21435
RightToes  6.35937e-011 1.2921e-014 -6.02303e-014
Spine  5.54382 -0.736216 5.10397
Spine1  -1.34793 -0.362645 -0.807688
HEad  -0.321954 -39.9097 1.16665
LeftShoulder1  0.821346 0.97332 -26.2842
LeftArm  2.50047 30.3937 -12.6441
LeftForeArm  -0.42322 -1.27904 -17.631
LeftHand  0.13264 2.44656 -5.90848
RightShoulder  5.41946 5.95749 50.1962
RightArm  27.0814 -0.469195 11.9924
RightForeArm  11.8299 0.181652 18.9918
RightHand  0.53978 4.24548 6.21349
LeftUpLeg  -15.4947 24.8638 5.74196
LeftLeg  20.0235 5.45778 2.5208
LeftFoot  0.777657 1.10306 -10.4153
LeftToes  3.18074e-010 1.39432e-010 -7.71186e-011
